# xmcd
#
# Track frame offsets:
#	150
#	6217
#	26480
#	32997
#	51472
#	70682
#	88352
#	111217
#	127462
#	148395
#	167220
#	181835
#
# Disc length: 2509 seconds
#
# Revision: 1
# Processed by: cddbd v1.5.1PL0 Copyright (c) Steve Scherf et al.
# Submitted via: CDex 1.50Beta5
#
DISCID=b709cb0c
DTITLE=JAYWALK - COUNTRY
DYEAR=1990
DGENRE=
TTITLE0=COUNTRY
TTITLE1=重い雨
TTITLE2=ONCE IN YOUR LIFE
TTITLE3=ONCE IN YOUR LIFE
TTITLE4=ピンクのラジオ
TTITLE5=Mrs.ロージー・ホワイト
TTITLE6=ロードノイズのなかで
TTITLE7=あいつだけの“Happy Birthday”
TTITLE8=カテドラルの鐘
TTITLE9=ANGELINE
TTITLE10=夜空の小夜曲
TTITLE11=COUNTRY
EXTD=
EXTT0=
EXTT1=
EXTT2=
EXTT3=
EXTT4=
EXTT5=
EXTT6=
EXTT7=
EXTT8=
EXTT9=
EXTT10=
EXTT11=
PLAYORDER=
